<?xml version="1.0" encoding="UTF-8" standalone="no"?>
<!-- Generator: Adobe Illustrator 27.5.0, SVG Export Plug-In . SVG Version: 6.00 Build 0)  -->

<svg
   version="1.1"
   id="Capa_1"
   x="0px"
   y="0px"
   viewBox="0 0 799.92104 945.28792"
   xml:space="preserve"
   width="799.92102"
   height="945.2879"
   xmlns="http://www.w3.org/2000/svg"
   xmlns:svg="http://www.w3.org/2000/svg"><defs
   id="defs65"><rect
     x="222.77943"
     y="327.29486"
     width="357.86758"
     height="243.77267"
     id="rect66" /><rect
     x="27.871536"
     y="730.54065"
     width="778.40509"
     height="77.992775"
     id="rect65" /></defs>
<rect
   y="0"
   style="clip-rule:evenodd;fill:#a0dbfa;fill-rule:evenodd;stroke-width:1.08707"
   width="799.91998"
   height="945.2879"
   id="rect1"
   x="0.001" />
<polygon
   style="clip-rule:evenodd;fill:#ffffff;fill-rule:evenodd"
   points="658.991,136.939 654.959,136.939 654.959,377.684 646.655,377.684 646.655,136.939 642.378,136.939 650.684,125.153 "
   id="polygon1"
   transform="translate(0.001,145.36792)" />
<path
   style="clip-rule:evenodd;fill:#ffffff;fill-rule:evenodd"
   d="m 51.406,361.61492 -10.996,-15.601 -11.853,16.817 v -77.905 H 43.49 l -28.997,-41.142 -14.492,20.562 v 680.942 c 287.066,0 608.08,0 799.92,0 v -667.871 l -23.525,33.38 h 13.71 v 49.736 l -9.558,-13.56 -8.285,11.756 v -97.417 h 14.933 l -28.997,-41.143 -28.998,41.143 h 14.075 v 32.453 l -6.645,-9.426 -19.901,28.237 h 9.66 v 31.023 l -11.389,-16.159 -12.573,17.839 v -58.049 h 14.933 l -28.997,-41.143 -28.997,41.143 h 14.075 v 48.193 l -11.716,-16.623 -28.996,41.143 h 14.074 v 33.128 l -10.901,-15.468 -12.667,17.972 v -82.428 h 14.933 l -28.997,-41.143 -28.997,41.143 h 14.075 v 23.414 l -10.996,-15.601 -11.853,16.818 v -77.905 h 14.933 l -28.997,-41.143 -28.997,41.143 h 14.075 v 48.954 l -9.197,-13.05 -28.244,40.074 h 13.709 v 49.736 l -9.557,-13.56 -8.285,11.756 v -97.417 h 14.932 l -28.997,-41.142 -28.996,41.142 h 14.074 v 32.453 l -6.643,-9.426 -19.901,28.237 h 9.66 v 31.023 l -11.389,-16.159 -12.573,17.839 v -58.049 h 14.933 l -28.997,-41.142 -28.997,41.142 h 14.075 v 48.193 l -11.716,-16.623 -28.997,41.142 h 14.075 v 29.21 l -11.853,-16.817 -11.715,16.623 v -75.811 h 14.932 l -28.997,-41.142 -28.996,41.142 h 14.075 v 23.414 l -10.996,-15.601 -11.853,16.817 v -77.905 h 14.932 l -28.997,-41.143 -28.997,41.143 h 14.075 v 23.9 l -9.197,-13.05 -28.244,40.074 h 13.71 v 49.736 l -9.557,-13.56 -8.286,11.756 v -137.781 h 14.933 l -28.997,-41.142 -28.996,41.142 h 14.075 v 72.818 l -6.644,-9.426 -19.902,28.237 h 9.66 v 31.023 l -11.389,-16.159 -12.573,17.839 v -58.049 h 14.933 l -28.997,-41.142 -28.996,41.142 h 14.075 v 48.193 l -11.715,-16.623 -28.997,41.142 h 14.075 v 22.63 l -12.349,-17.521 -11.22,15.92 v -67.824 h 14.933 l -28.997,-41.142 -29.001,41.143 h 14.075 z"
   id="path1" />
<polygon
   style="clip-rule:evenodd;fill:#0073a2;fill-rule:evenodd"
   points="154.962,396.856 130.926,396.856 130.926,784.116 81.428,784.116 81.428,396.856 55.928,396.856 105.445,326.598 "
   id="polygon2"
   transform="translate(0.001,145.36792)" />
<polygon
   style="clip-rule:evenodd;fill:#f4b200;fill-rule:evenodd"
   points="114.003,487.786 89.967,487.786 89.967,784.116 40.468,784.116 40.468,487.786 14.968,487.786 64.485,417.528 "
   id="polygon3"
   transform="translate(0.001,145.36792)" />
<polygon
   style="clip-rule:evenodd;fill:#e95818;fill-rule:evenodd"
   points="89.967,487.786 89.967,784.116 81.428,784.116 81.428,441.566 114.003,487.786 "
   id="polygon4"
   transform="translate(0.001,145.36792)" />
<polygon
   style="clip-rule:evenodd;fill:#dd0031;fill-rule:evenodd"
   points="195.102,525.469 171.067,525.469 171.067,784.116 121.568,784.116 121.568,525.469 96.068,525.469 145.585,455.211 "
   id="polygon5"
   transform="translate(0.001,145.36792)" />
<polygon
   style="clip-rule:evenodd;fill:#6f3969;fill-rule:evenodd"
   points="130.926,784.116 121.568,784.116 121.568,525.469 96.068,525.469 130.926,476.01 "
   id="polygon6"
   transform="translate(0.001,145.36792)" />
<polygon
   style="clip-rule:evenodd;fill:#a1ba24;fill-rule:evenodd"
   points="236.166,307.834 212.13,307.834 212.13,784.116 162.631,784.116 162.631,307.834 137.132,307.834 186.649,237.576 "
   id="polygon7"
   transform="translate(0.001,145.36792)" />
<polygon
   style="clip-rule:evenodd;fill:#bf5c2a;fill-rule:evenodd"
   points="171.067,525.469 171.067,784.116 162.631,784.116 162.631,479.396 195.102,525.469 "
   id="polygon8"
   transform="translate(0.001,145.36792)" />
<polygon
   style="clip-rule:evenodd;fill:#801d88;fill-rule:evenodd"
   points="277.229,222.627 253.193,222.627 253.193,784.116 203.694,784.116 203.694,222.627 178.195,222.627 227.712,152.37 "
   id="polygon9"
   transform="translate(0.001,145.36792)" />
<polygon
   style="clip-rule:evenodd;fill:#916c56;fill-rule:evenodd"
   points="212.13,307.834 212.13,784.116 203.694,784.116 203.694,261.761 236.166,307.834 "
   id="polygon10"
   transform="translate(0.001,145.36792)" />
<polygon
   style="clip-rule:evenodd;fill:#ed6500;fill-rule:evenodd"
   points="319.225,360.012 295.189,360.012 295.189,784.116 245.69,784.116 245.69,360.012 220.19,360.012 269.707,289.754 "
   id="polygon11"
   transform="translate(0.001,145.36792)" />
<polygon
   style="clip-rule:evenodd;fill:#b74144;fill-rule:evenodd"
   points="253.193,784.116 245.69,784.116 245.69,360.012 220.19,360.012 253.193,313.185 "
   id="polygon12"
   transform="translate(0.001,145.36792)" />
<polygon
   style="clip-rule:evenodd;fill:#0073a2;fill-rule:evenodd"
   points="360.754,438.811 336.719,438.811 336.719,784.116 287.22,784.116 287.22,438.811 261.72,438.811 311.237,368.553 "
   id="polygon13"
   transform="translate(0.001,145.36792)" />
<polygon
   style="clip-rule:evenodd;fill:#766c51;fill-rule:evenodd"
   points="287.22,784.116 287.22,438.811 261.72,438.811 295.189,391.323 295.189,784.116 "
   id="polygon14"
   transform="translate(0.001,145.36792)" />
<polygon
   style="clip-rule:evenodd;fill:#f4b200;fill-rule:evenodd"
   points="402.284,289.731 378.248,289.731 378.248,784.116 328.749,784.116 328.749,289.731 303.249,289.731 352.767,219.473 "
   id="polygon15"
   transform="translate(0.001,145.36792)" />
<polygon
   style="clip-rule:evenodd;fill:#7a9350;fill-rule:evenodd"
   points="336.719,438.811 336.719,784.116 328.749,784.116 328.749,393.4 360.754,438.811 "
   id="polygon16"
   transform="translate(0.001,145.36792)" />
<polygon
   style="clip-rule:evenodd;fill:#c5007e;fill-rule:evenodd"
   points="443.813,385.568 419.777,385.568 419.777,784.116 370.278,784.116 370.278,385.568 344.779,385.568 394.296,315.311 "
   id="polygon17"
   transform="translate(0.001,145.36792)" />
<polygon
   style="clip-rule:evenodd;fill:#dd593e;fill-rule:evenodd"
   points="378.248,784.116 370.278,784.116 370.278,385.568 344.779,385.568 378.248,338.08 "
   id="polygon18"
   transform="translate(0.001,145.36792)" />
<polygon
   style="clip-rule:evenodd;fill:#801d88;fill-rule:evenodd"
   points="462.372,784.116 412.873,784.116 412.873,494.185 387.373,494.185 436.891,423.926 486.407,494.185 462.372,494.185 "
   id="polygon19"
   transform="translate(0.001,145.36792)" />
<polygon
   style="clip-rule:evenodd;fill:#a30e83;fill-rule:evenodd"
   points="419.777,784.116 412.873,784.116 412.873,494.185 387.373,494.185 419.777,448.207 "
   id="polygon20"
   transform="translate(0.001,145.36792)" />
<polygon
   style="clip-rule:evenodd;fill:#dd0031;fill-rule:evenodd"
   points="530.066,585.762 506.03,585.762 506.03,784.116 456.532,784.116 456.532,585.762 431.032,585.762 480.55,515.504 "
   id="polygon21"
   transform="translate(0.001,145.36792)" />
<polygon
   style="clip-rule:evenodd;fill:#af0e5c;fill-rule:evenodd"
   points="456.532,784.116 456.532,585.762 431.032,585.762 462.372,541.295 462.372,784.116 "
   id="polygon22"
   transform="translate(0.001,145.36792)" />
<polygon
   style="clip-rule:evenodd;fill:#ed6500;fill-rule:evenodd"
   points="572.661,424.968 548.625,424.968 548.625,784.116 499.126,784.116 499.126,424.968 473.627,424.968 523.144,354.71 "
   id="polygon23"
   transform="translate(0.001,145.36792)" />
<polygon
   style="clip-rule:evenodd;fill:#e53218;fill-rule:evenodd"
   points="506.03,585.762 506.03,784.116 499.126,784.116 499.126,541.861 530.066,585.762 "
   id="polygon24"
   transform="translate(0.001,145.36792)" />
<polygon
   style="clip-rule:evenodd;fill:#0073a2;fill-rule:evenodd"
   points="615.255,327.001 591.22,327.001 591.22,784.116 541.721,784.116 541.721,327.001 516.221,327.001 565.738,256.743 "
   id="polygon25"
   transform="translate(0.001,145.36792)" />
<polygon
   style="clip-rule:evenodd;fill:#766c51;fill-rule:evenodd"
   points="548.625,424.968 548.625,784.116 541.721,784.116 541.721,381.068 572.661,424.968 "
   id="polygon26"
   transform="translate(0.001,145.36792)" />
<polygon
   style="clip-rule:evenodd;fill:#f4b200;fill-rule:evenodd"
   points="657.85,472.887 633.813,472.887 633.813,784.116 584.315,784.116 584.315,472.887 558.815,472.887 608.332,402.629 "
   id="polygon27"
   transform="translate(0.001,145.36792)" />
<polygon
   style="clip-rule:evenodd;fill:#7a9350;fill-rule:evenodd"
   points="584.315,784.116 584.315,472.887 558.815,472.887 591.22,426.909 591.22,784.116 "
   id="polygon28"
   transform="translate(0.001,145.36792)" />
<polygon
   style="clip-rule:evenodd;fill:#801d88;fill-rule:evenodd"
   points="701.509,571.919 677.473,571.919 677.473,784.116 627.974,784.116 627.974,571.919 602.475,571.919 651.991,501.66 "
   id="polygon29"
   transform="translate(0.001,145.36792)" />
<polygon
   style="clip-rule:evenodd;fill:#ba6744;fill-rule:evenodd"
   points="633.813,784.116 627.974,784.116 627.974,571.919 602.475,571.919 633.813,527.452 "
   id="polygon30"
   transform="translate(0.001,145.36792)" />
<polygon
   style="clip-rule:evenodd;fill:#a1ba24;fill-rule:evenodd"
   points="744.102,399.412 720.067,399.412 720.067,784.116 670.568,784.116 670.568,399.412 645.068,399.412 694.586,329.153 "
   id="polygon31"
   transform="translate(0.001,145.36792)" />
<polygon
   style="clip-rule:evenodd;fill:#916c56;fill-rule:evenodd"
   points="677.473,571.919 677.473,784.116 670.568,784.116 670.568,528.018 701.509,571.919 "
   id="polygon32"
   transform="translate(0.001,145.36792)" />
<polygon
   style="clip-rule:evenodd;fill:#dd0031;fill-rule:evenodd"
   points="786.697,511.222 762.661,511.222 762.661,784.116 713.162,784.116 713.162,511.222 687.662,511.222 737.18,440.964 "
   id="polygon33"
   transform="translate(0.001,145.36792)" />
<polygon
   style="clip-rule:evenodd;fill:#bf5c2a;fill-rule:evenodd"
   points="713.162,784.116 713.162,511.222 687.662,511.222 720.067,465.244 720.067,784.116 "
   id="polygon34"
   transform="translate(0.001,145.36792)" />
<path
   style="clip-rule:evenodd;fill:#ffffff;fill-rule:evenodd"
   d="m 140.554,690.37292 28.997,-41.143 28.997,41.143 h -14.075 v 64.45 l 10.996,-15.602 28.997,41.143 h -14.075 v 23.414 l 10.996,-15.602 11.852,16.817 v -77.905 h -14.932 l 28.997,-41.142 28.997,41.142 h -14.075 v 48.954 l 9.197,-13.05 28.245,40.075 h -13.71 v 49.735 l 9.557,-13.56 8.286,11.757 v -97.417 h -14.933 l 28.997,-41.142 28.997,41.142 h -14.075 v 32.453 l 6.644,-9.427 19.901,28.238 h -9.66 v 31.022 l 11.389,-16.159 12.573,17.839 v -58.049 h -14.933 l 28.997,-41.143 28.997,41.143 H 402.62 v 48.193 l 11.716,-16.623 21.46416,30.45686 5.31084,-6.92086 11.716,16.622 v -45.81 h -14.933 l 28.997,-41.142 28.997,41.142 h -14.075 v 23.414 l 10.996,-15.601 11.853,16.817 v -77.905 h -14.933 l 28.997,-41.143 28.997,41.143 h -14.075 v 23.899 l 9.198,-13.05 28.243,40.075 H 557.38 v 49.735 l 9.557,-13.56 8.286,11.757 v -137.78 H 560.29 l 28.997,-41.142 28.997,41.142 h -14.075 v 72.818 l 6.644,-9.427 19.901,28.238 h -9.66 v 31.022 l 11.39,-16.159 12.572,17.839 v -58.049 h -14.933 l 28.997,-41.143 28.997,41.143 h -14.075 v 48.193 l 11.716,-16.623 22.43456,30.47358 4.83644,-6.22158 11.22,15.92 v -45.824 h -14.932 l 28.997,-41.142 28.996,41.142 h -14.074 v 23.414 l 10.995,-15.601 11.852,16.817 v -77.905 l -11.98653,-0.65137 26.05053,-40.49163 9.773,13.867 v 208.42 H 0 v -195.348 l 28.244,40.074 h -13.71 v 49.735 l 9.557,-13.56 8.286,11.756 v -97.416 H 17.446 l 28.997,-41.143 28.997,41.143 H 61.365 v 32.452 l 6.644,-9.426 19.901,28.237 h -9.66 v 31.022 l 11.389,-16.159 12.573,17.839 v -58.049 H 87.279 l 28.997,-41.142 28.997,41.142 h -14.075 v 48.193 l 11.716,-16.622 12.573,17.839 v -113.481 z"
   id="path34" />

<polygon
   style="clip-rule:evenodd;fill:#ffffff;fill-rule:evenodd"
   points="73.967,118.991 69.935,118.991 69.935,359.736 61.631,359.736 61.631,118.991 57.354,118.991 65.66,107.205 "
   id="polygon60"
   transform="translate(0.001,145.36792)" />
<polygon
   style="clip-rule:evenodd;fill:#ffffff;fill-rule:evenodd"
   points="156.145,37.469 152.112,37.469 152.112,278.214 143.809,278.214 143.809,37.469 139.531,37.469 147.837,25.683 "
   id="polygon61"
   transform="translate(0.001,145.36792)" />
<polygon
   style="clip-rule:evenodd;fill:#ffffff;fill-rule:evenodd"
   points="653.848,606.583 649.815,606.583 649.815,756.577 641.512,756.577 641.512,606.583 637.234,606.583 645.541,594.797 "
   id="polygon62"
   transform="translate(0.001,145.36792)" />
<polygon
   style="clip-rule:evenodd;fill:#ffffff;fill-rule:evenodd"
   points="132.417,541.98 128.384,541.98 128.384,691.976 120.081,691.976 120.081,541.98 115.803,541.98 124.109,530.194 "
   id="polygon63"
   transform="translate(0.001,145.36792)" />
<polygon
   style="clip-rule:evenodd;fill:#ffffff;fill-rule:evenodd"
   points="752.289,592.739 748.256,592.739 748.256,742.734 739.953,742.734 739.953,592.739 735.675,592.739 743.981,580.953 "
   id="polygon64"
   transform="translate(0.001,145.36792)" />
<polygon
   style="clip-rule:evenodd;fill:#ffffff;fill-rule:evenodd"
   points="471.004,75.805 466.972,75.805 466.972,316.55 458.668,316.55 458.668,75.805 454.391,75.805 462.697,64.019 "
   id="polygon65"
   transform="translate(0.001,145.36792)" />
<text
   xml:space="preserve"
   id="text65"
   style="font-style:normal;font-variant:normal;font-weight:bold;font-stretch:normal;font-size:53.3333px;font-family:'Liberation Sans';-inkscape-font-specification:'Liberation Sans, Bold';font-variant-ligatures:normal;font-variant-caps:normal;font-variant-numeric:normal;font-variant-east-asian:normal;white-space:pre;shape-inside:url(#rect65);fill:#000000"
   transform="translate(-11.999,133.36792)"><tspan
     x="27.871094"
     y="778.58122"
     id="tspan1">UNEXPECTED PROMPTITUDE</tspan></text><text
   xml:space="preserve"
   id="text66"
   style="font-style:normal;font-variant:normal;font-weight:bold;font-stretch:normal;font-size:192px;font-family:'Liberation Sans';-inkscape-font-specification:'Liberation Sans, Bold';font-variant-ligatures:normal;font-variant-caps:normal;font-variant-numeric:normal;font-variant-east-asian:normal;white-space:pre;shape-inside:url(#rect66);fill:#000000"
   transform="translate(20.13016,-317.87561)"><tspan
     x="222.7793"
     y="500.23977"
     id="tspan2">UP!</tspan></text></svg>
